<svg width="20" height="28" viewBox="0 0 20 28" fill="none" xmlns="http://www.w3.org/2000/svg">
<path d="M10.2547 0.00646973C5.04386 0.00646973 0.804443 4.24589 0.804443 9.45671C0.804443 16.0062 10.264 27.194 10.264 27.194C10.264 27.194 19.7049 15.6841 19.7049 9.45671C19.7049 4.24589 15.4657 0.00646973 10.2547 0.00646973ZM13.106 12.2238C12.3198 13.0098 11.2873 13.4029 10.2547 13.4029C9.22221 13.4029 8.18941 13.0098 7.40352 12.2238C5.83124 10.6516 5.83124 8.09352 7.40352 6.52125C8.16485 5.75959 9.17758 5.34009 10.2547 5.34009C11.3318 5.34009 12.3444 5.75975 13.106 6.52125C14.6783 8.09352 14.6783 10.6516 13.106 12.2238Z" fill="white"/>
</svg>
