<svg width="30" height="31" viewBox="0 0 30 31" fill="none" xmlns="http://www.w3.org/2000/svg">
<path d="M10.0764 12.4633C11.1045 11.4352 11.1045 9.76245 10.0764 8.73437L6.46079 5.11872C5.90772 4.5656 5.14103 4.28534 4.35804 4.3498C3.58999 4.41302 2.8953 4.80454 2.45216 5.42388C2.36017 5.55243 2.27134 5.68286 2.18433 5.81435L9.45481 13.0848L10.0764 12.4633Z" fill="white"/>
<path d="M24.9962 23.6538L21.3806 20.0381C20.3526 19.0101 18.6797 19.01 17.6517 20.0381L17.03 20.6597L24.3008 27.9305C24.4323 27.8435 24.5625 27.7543 24.691 27.6624C25.3103 27.2192 25.7019 26.5246 25.7651 25.7565C25.8296 24.9734 25.5493 24.2069 24.9962 23.6538Z" fill="white"/>
<path d="M14.5442 22.0534C13.8398 22.0534 13.1778 21.7791 12.6798 21.2811L8.83366 17.4351C8.33567 16.9371 8.06133 16.2749 8.06133 15.5706C8.06133 15.1705 8.1501 14.7842 8.3178 14.4336L1.28643 7.40222C0.297367 9.47896 -0.140328 11.8057 0.040258 14.1411C0.283598 17.2882 1.64075 20.2444 3.8618 22.4654L7.64942 26.253C9.87036 28.474 12.8267 29.8312 15.9738 30.0745C16.3177 30.1011 16.6613 30.1143 17.004 30.1143C18.9889 30.1143 20.9416 29.6718 22.7126 28.8284L15.6811 21.797C15.3306 21.9647 14.9443 22.0534 14.5442 22.0534Z" fill="white"/>
<path d="M17.6958 0.11438C17.2104 0.11438 16.8169 0.507895 16.8169 0.993286C16.8169 1.47868 17.2104 1.87219 17.6958 1.87219C23.5113 1.87219 28.2427 6.60352 28.2427 12.4191C28.2427 12.9045 28.6362 13.298 29.1216 13.298C29.607 13.298 30.0005 12.9045 30.0005 12.4191C30.0005 5.63426 24.4806 0.11438 17.6958 0.11438Z" fill="white"/>
<path d="M17.6957 12.4182C17.6957 12.4182 17.6958 12.4185 17.6958 12.4191C17.6958 12.9045 18.0893 13.298 18.5747 13.298C19.0601 13.298 19.4536 12.9045 19.4536 12.4191C19.4536 11.4498 18.6651 10.6613 17.6958 10.6613C17.2104 10.6613 16.8169 11.0544 16.8169 11.5398C16.8169 12.0251 17.2104 12.4182 17.6957 12.4182Z" fill="white"/>
<path d="M17.6958 8.90344C19.6343 8.90344 21.2114 10.4806 21.2114 12.4191C21.2114 12.9045 21.6049 13.298 22.0903 13.298C22.5757 13.298 22.9692 12.9045 22.9692 12.4191C22.9692 9.51129 20.6036 7.14563 17.6958 7.14563C17.2104 7.14563 16.8169 7.53915 16.8169 8.02454C16.8169 8.50993 17.2104 8.90344 17.6958 8.90344Z" fill="white"/>
<path d="M17.6958 3.63C17.2104 3.63 16.8169 4.02352 16.8169 4.50891C16.8169 4.9943 17.2104 5.38782 17.6958 5.38782C21.5728 5.38782 24.7271 8.54204 24.7271 12.4191C24.7271 12.9045 25.1206 13.298 25.606 13.298C26.0913 13.298 26.4849 12.9045 26.4849 12.4191C26.4849 7.57278 22.5421 3.63 17.6958 3.63Z" fill="white"/>
</svg>
