<svg width="29" height="30" viewBox="0 0 29 30" fill="none" xmlns="http://www.w3.org/2000/svg">
<path d="M14.2547 1.00647C9.04386 1.00647 4.80444 5.24589 4.80444 10.4567C4.80444 17.0062 14.264 28.194 14.264 28.194C14.264 28.194 23.7049 16.6841 23.7049 10.4567C23.7049 5.24589 19.4657 1.00647 14.2547 1.00647ZM17.106 13.2238C16.3198 14.0098 15.2873 14.4029 14.2547 14.4029C13.2222 14.4029 12.1894 14.0098 11.4035 13.2238C9.83124 11.6516 9.83124 9.09352 11.4035 7.52125C12.1648 6.75959 13.1776 6.34009 14.2547 6.34009C15.3318 6.34009 16.3444 6.75975 17.106 7.52125C18.6783 9.09352 18.6783 11.6516 17.106 13.2238Z" fill="white"/>
</svg>
