<?xml version="1.0" encoding="utf-8"?>
<!-- Generator: Adobe Illustrator 26.0.1, SVG Export Plug-In . SVG Version: 6.00 Build 0)  -->
<svg version="1.1" xmlns="http://www.w3.org/2000/svg" xmlns:xlink="http://www.w3.org/1999/xlink" x="0px" y="0px"
	 viewBox="0 0 73 69" style="enable-background:new 0 0 73 69;" xml:space="preserve">
<style type="text/css">
	.st0{display:none;}
	.st1{display:inline;fill:#B71C1C;}
	.st2{fill:none;stroke:#FFFFFF;stroke-width:4;stroke-linecap:round;stroke-linejoin:round;}
	.st3{display:none;fill:none;stroke:#FFFFFF;stroke-width:4;stroke-linecap:round;stroke-linejoin:round;}
	.st4{fill:#FFFFFF;}
</style>
<g id="Слой_2" class="st0">
	<rect x="-14.3" y="-8.2" class="st1" width="94.9" height="81"/>
</g>
<g id="Слой_1">
	<g>
		<path class="st2" d="M36.5,58.6c16.4,0,29.7-12.6,29.7-28c0-15.5-13.3-28-29.7-28c-16.4,0-29.7,12.6-29.7,28
			C6.8,46.1,20.1,58.6,36.5,58.6z"/>
		<path class="st3" d="M30.6,19.4l17.8,11.2L30.6,41.8V19.4z"/>
	</g>
	<g>
		<g>
			<path class="st4" d="M30.7,43.6c1.6,0,2.9-1.3,2.9-2.9V18.7c0-1.6-1.3-2.9-2.9-2.9s-2.9,1.3-2.9,2.9v22.1
				C27.8,42.3,29.1,43.6,30.7,43.6z"/>
			<path class="st4" d="M42.3,43.6c1.6,0,2.9-1.3,2.9-2.9V18.7c0-1.6-1.3-2.9-2.9-2.9s-2.9,1.3-2.9,2.9v22.1
				C39.4,42.3,40.7,43.6,42.3,43.6z"/>
		</g>
	</g>
</g>
</svg>
