<?xml version="1.0" encoding="utf-8"?>
<!-- Generator: Adobe Illustrator 26.0.1, SVG Export Plug-In . SVG Version: 6.00 Build 0)  -->
<svg version="1.1" id="Слой_1" xmlns="http://www.w3.org/2000/svg" xmlns:xlink="http://www.w3.org/1999/xlink" x="0px" y="0px"
	 viewBox="0 0 1267 1280" style="enable-background:new 0 0 1267 1280;" xml:space="preserve">
<style type="text/css">
	.st0{fill:#FFFFFF;}
</style>
<g transform="translate(0.000000,1280.000000) scale(0.100000,-0.100000)">
	<path class="st0" d="M6150,12794c-195-19-398-76-550-155c-338-176-592-520-691-938c-54-226-52-157-56-2058l-4-1763H3137
		c-1854,0-1839,0-2071-54c-403-96-739-346-906-676C46,6923-10,6636,3,6333c17-398,156-724,421-989c200-199,415-319,695-385
		c204-49,183-49,2013-49h1717l4-1762c4-1902,2-1833,56-2059c100-421,345-751,688-927c124-64,249-105,402-134c168-32,494-32,663,0
		c300,56,514,167,713,366c234,236,365,511,421,886c16,105,18,270,21,1873l4,1757h1717c1888,0,1849-1,2091,61
		c400,103,715,350,886,698c151,305,196,741,115,1126c-83,402-328,720-697,907c-120,62-190,87-332,123c-218,55-211,55-2068,55H7821
		l-4,1763c-3,1564-5,1774-20,1869c-59,391-203,678-463,928c-184,177-393,280-669,331C6557,12791,6259,12804,6150,12794z"/>
</g>
</svg>
